<svg xmlns="http://www.w3.org/2000/svg" xmlns:xlink="http://www.w3.org/1999/xlink" width="196" height="196" viewBox="0 0 196 196">
  <defs>
    <filter id="Ellipse_6" x="0" y="0" width="196" height="196" filterUnits="userSpaceOnUse">
      <feOffset dx="3" dy="3" input="SourceAlpha"/>
      <feGaussianBlur stdDeviation="4.5" result="blur"/>
      <feFlood flood-opacity="0.161"/>
      <feComposite operator="in" in2="blur"/>
      <feComposite in="SourceGraphic"/>
    </filter>
  </defs>
  <g id="Group_143" data-name="Group 143" transform="translate(-112.5 -53.5)">
    <g transform="matrix(1, 0, 0, 1, 112.5, 53.5)" filter="url(#Ellipse_6)">
      <circle id="Ellipse_6-2" data-name="Ellipse 6" cx="84.5" cy="84.5" r="84.5" transform="translate(10.5 10.5)" fill="#fff"/>
    </g>
    <g id="Group_63" data-name="Group 63" transform="translate(119 -67)">
      <g id="Group_60" data-name="Group 60" transform="translate(101.5 166.5)">
        <line id="Line_12" data-name="Line 12" y2="25" transform="translate(28 21)" fill="none" stroke="#274069" stroke-width="3"/>
        <line id="Line_13" data-name="Line 13" y2="20" transform="translate(21 17)" fill="none" stroke="#274069" stroke-width="3"/>
        <line id="Line_14" data-name="Line 14" y2="31" transform="translate(14 6)" fill="none" stroke="#274069" stroke-width="3"/>
        <line id="Line_15" data-name="Line 15" y2="30" transform="translate(7 3)" fill="none" stroke="#274069" stroke-width="3"/>
        <path id="Path_46" data-name="Path 46" d="M0,0V32" transform="translate(0)" fill="none" stroke="#274069" stroke-width="3"/>
      </g>
      <g id="Group_61" data-name="Group 61">
        <path id="Path_41" data-name="Path 41" d="M2429.606,773.771h19.164V836.6h-19.164Z" transform="translate(-2300 -597.04)" fill="#274069"/>
        <g id="Group_58" data-name="Group 58" transform="translate(-124 74.96)">
          <path id="Path_28" data-name="Path 28" d="M2448.771,773.771h-19.164V836.6h19.164Z" transform="translate(-2277.106 -672)" fill="#274069"/>
          <path id="Path_29" data-name="Path 29" d="M2501.771,817.534" transform="translate(-2331.319 -656.062)" fill="#274069"/>
        </g>
        <path id="Path_42" data-name="Path 42" d="M2501.771,780.353s9.255-2.491,12.474-11.392c1.284-3.552,5.5-6.334,10.373-8.516a74.778,74.778,0,0,1,14.472-4.455V817.5l-37.319,10.933" transform="translate(-2455.271 -592)" fill="none" stroke="#274069" stroke-width="3"/>
        <path id="Path_43" data-name="Path 43" d="M180.819,128.125l-45.612,12.5,8.146,29.513,37.466-11.009Z" transform="translate(-97 66)" fill="#274069"/>
        <path id="Path_44" data-name="Path 44" d="M2539.09,780.353s-9.255-2.491-12.474-11.392c-1.284-3.552-5.5-6.334-10.373-8.516a74.778,74.778,0,0,0-14.472-4.455V817.5l39.011,11.208" transform="translate(-2408.271 -592)" fill="none" stroke="#274069" stroke-width="3"/>
        <path id="Path_45" data-name="Path 45" d="M135.207,128.125l45.612,12.5-8.146,29.513-37.466-11.009Z" transform="translate(-43 66)" fill="#274069"/>
        <g id="Group_59" data-name="Group 59">
          <line id="Line_12-2" data-name="Line 12" y2="25" transform="translate(48.5 186.5)" fill="none" stroke="#274069" stroke-width="3"/>
          <line id="Line_13-2" data-name="Line 13" y2="20" transform="translate(55.5 182.5)" fill="none" stroke="#274069" stroke-width="3"/>
          <line id="Line_14-2" data-name="Line 14" y2="31" transform="translate(62.5 171.5)" fill="none" stroke="#274069" stroke-width="3"/>
          <line id="Line_15-2" data-name="Line 15" y2="30" transform="translate(69.5 168.5)" fill="none" stroke="#274069" stroke-width="3"/>
          <path id="Path_46-2" data-name="Path 46" d="M0,0V32" transform="translate(76.5 165.5)" fill="none" stroke="#274069" stroke-width="3"/>
        </g>
        <rect id="Rectangle_20" data-name="Rectangle 20" width="23" height="3" transform="translate(127 175)" fill="#274069"/>
        <rect id="Rectangle_21" data-name="Rectangle 21" width="23" height="3" transform="translate(26 175)" fill="#274069"/>
      </g>
    </g>
    <text id="GateCheck" transform="translate(158 180)" fill="#274069" font-size="20" font-family="SegoeUI-Bold, Segoe UI" font-weight="700"><tspan x="0" y="22">GateCheck</tspan></text>
  </g>
</svg>
